<?xml version="1.0" encoding="UTF-8"?>
<svg id="Layer_2" data-name="Layer 2" xmlns="http://www.w3.org/2000/svg" viewBox="0 0 257.2 61.57">
  <defs>
    <style>
      .cls-1 {
        fill: #283a97;
        stroke-width: 0px;
      }
    </style>
  </defs>
  <g id="Home_page" data-name="Home page">
    <g>
      <g>
        <path class="cls-1" d="M71.89,13.12c5.73-2.89,10.8-2.7,10.85-2.7.03,0,.05,0,.08,0,0,0,0,0,0,0,5.33,0,10.37,1.71,14.58,4.96.3.23.66.35,1.02.35.18,0,.36-.03.54-.09l6.71-2.28c.51-.17.9-.58,1.06-1.09.16-.51.06-1.07-.27-1.5C101.26,3.92,93.36,0,84.77,0c-.01,0-.02,0-.04,0-.87-.02-6.18-.03-12.24,2.98-5.95,2.95-13.78,9.49-17.31,23.87-2.57,10.48-7.7,17.74-15.24,21.6-5.64,2.89-10.62,2.7-10.67,2.7-.03,0-.05,0-.08,0h0c-13.18,0-23.91-10.73-23.91-23.91,0-.92.05-1.84.15-2.73,3.75-8.31,12.11-14.11,21.81-14.11,4.29,0,8.49,1.15,12.16,3.32.42.25.93.3,1.39.14l7.56-2.58c.54-.18.95-.63,1.08-1.18.14-.55-.02-1.13-.41-1.55C43.83,3.04,36.79,0,29.2,0,15.4,0,3.97,10.31,2.19,23.62c-1.41,3.29-2.19,6.9-2.19,10.7,0,15.03,12.22,27.25,27.25,27.25.01,0,.02,0,.03,0,.07,0,.17,0,.3,0,1.43,0,6.29-.22,11.77-2.99,10.63-5.35,15.18-15.93,17.13-23.87,2.57-10.47,7.76-17.74,15.41-21.6M29.2,3.34c5.76,0,11.16,2,15.48,5.68l-4.24,1.45c-4.02-2.22-8.56-3.4-13.18-3.4-6.73,0-12.9,2.45-17.66,6.51C13.92,7.4,21.09,3.34,29.2,3.34M73.84,6.05c5.73-2.89,10.8-2.7,10.85-2.7.03,0,.05,0,.08,0,0,0,0,0,0,0,6.74,0,13,2.75,17.51,7.63l-3.57,1.21c-4.65-3.35-10.12-5.11-15.89-5.11-.01,0-.02,0-.04,0-.87-.02-6.18-.03-12.24,2.98-1.95.97-4.11,2.33-6.25,4.23,2.56-3.56,5.75-6.32,9.54-8.23M38,55.53c-5.62,2.88-10.59,2.7-10.67,2.7-.03,0-.05,0-.08,0,0,0,0,0,0,0-12.6,0-22.96-9.8-23.85-22.19,3.67,10.72,13.84,18.46,25.8,18.46.01,0,.02,0,.03,0,.07,0,.17,0,.3,0,1.43,0,6.29-.22,11.77-2.99,2.26-1.14,4.24-2.51,5.98-4.04-2.51,3.48-5.61,6.18-9.28,8.06"/>
        <path class="cls-1" d="M110.35,26.4h-25.58c-.92,0-1.67.75-1.67,1.67v6.25c0,.92.75,1.67,1.67,1.67h22.56c-3.25,9.15-12.05,15.16-22.55,15.16-5.58,0-8.71-2.66-13.03-6.34l-.25-.21c-.47-.4-1.13-.51-1.7-.28l-6.84,2.74c-.47.19-.83.58-.98,1.06-.15.48-.07,1.01.21,1.43,5.08,7.52,13.52,12.01,22.58,12.01h0c15.02,0,27.25-12.22,27.25-27.25v-6.25c0-.92-.75-1.67-1.67-1.67M86.44,29.75h22.24v2.91h-22.24v-2.91ZM66.2,49.37l3.9-1.56c4.29,3.64,8.14,6.69,14.68,6.69,8.87,0,16.68-3.79,21.64-10.04-.53,1.12-1.13,2.2-1.82,3.21,0,0,0,.01-.01.02-.21.31-.42.61-.65.91-.02.03-.05.07-.08.1-.2.27-.41.53-.62.79-.04.05-.08.1-.12.15-.2.24-.41.48-.62.71-.05.06-.11.11-.16.17-.2.22-.41.44-.62.65-.06.06-.13.12-.19.18-.21.2-.41.4-.63.6-.07.06-.14.13-.21.19-.21.19-.42.37-.64.55-.08.07-.16.13-.24.19-.21.17-.43.34-.65.51-.08.06-.17.13-.26.19-.22.16-.44.32-.66.47-.09.06-.18.12-.28.19-.22.15-.45.29-.67.43-.1.06-.19.12-.29.18-.23.14-.46.27-.69.4-.1.06-.21.11-.31.17-.23.12-.47.24-.7.36-.11.05-.21.11-.32.16-.24.11-.48.22-.72.32-.11.05-.22.1-.33.14-.24.1-.48.2-.73.29-.12.04-.23.09-.35.13-.25.09-.49.17-.74.25-.12.04-.24.08-.35.12-.25.08-.51.15-.76.22-.12.03-.24.07-.36.1-.26.07-.52.12-.78.18-.12.03-.24.06-.36.08-.27.05-.54.1-.81.14-.12.02-.24.04-.35.06-.28.04-.56.08-.85.11-.11.01-.22.03-.33.04-.31.03-.62.05-.93.07-.09,0-.18.01-.27.02-.4.02-.8.03-1.21.03-7.25,0-14.05-3.28-18.57-8.86"/>
      </g>
      <g>
        <path class="cls-1" d="M150.86,8.19c-.93-1-1.83-1.67-2.7-2-.87-.33-1.75-.5-2.63-.5-1.31,0-2.5.23-3.56.7-1.06.46-1.97,1.11-2.73,1.93s-1.35,1.78-1.77,2.88c-.42,1.1-.63,2.28-.63,3.54,0,1.36.21,2.61.63,3.75.42,1.14,1.01,2.13,1.77,2.97.76.83,1.67,1.49,2.73,1.97,1.06.48,2.24.71,3.56.71,1.02,0,2.02-.24,2.98-.73s1.86-1.27,2.7-2.34l3.72,2.64c-1.14,1.57-2.54,2.72-4.18,3.43-1.64.71-3.39,1.07-5.25,1.07-1.95,0-3.75-.32-5.38-.95-1.63-.63-3.04-1.52-4.22-2.68s-2.1-2.54-2.77-4.16c-.67-1.62-1-3.42-1-5.4s.33-3.86,1-5.52c.67-1.66,1.59-3.07,2.77-4.23s2.58-2.07,4.22-2.7c1.63-.63,3.42-.95,5.38-.95,1.71,0,3.3.3,4.77.91,1.47.61,2.83,1.64,4.09,3.09l-3.5,2.57Z"/>
        <path class="cls-1" d="M157.87,2.26h4.5v25.3h-4.5V2.26Z"/>
        <path class="cls-1" d="M167.91,2.26h5.97l12.26,18.8h.07V2.26h4.5v25.3h-5.72l-12.51-19.4h-.07v19.4h-4.5V2.26Z"/>
        <path class="cls-1" d="M196.24,2.26h4.5v25.3h-4.5V2.26Z"/>
      </g>
      <g>
        <path class="cls-1" d="M155.97,58c-3.12,1.67-6.61,2.5-10.47,2.5-1.95,0-3.75-.32-5.38-.95-1.63-.63-3.04-1.52-4.22-2.68s-2.1-2.54-2.77-4.16c-.67-1.62-1-3.42-1-5.4s.33-3.86,1-5.52c.67-1.66,1.59-3.07,2.77-4.23s2.58-2.07,4.22-2.7c1.63-.63,3.42-.95,5.38-.95s3.74.23,5.43.7c1.69.46,3.2,1.29,4.54,2.48l-3.32,3.36c-.81-.79-1.79-1.39-2.95-1.82-1.16-.43-2.38-.64-3.66-.64s-2.5.23-3.56.7c-1.06.46-1.97,1.11-2.73,1.93s-1.35,1.78-1.77,2.88c-.42,1.1-.63,2.28-.63,3.54,0,1.36.21,2.61.63,3.75.42,1.14,1.01,2.13,1.77,2.97.76.83,1.67,1.49,2.73,1.97,1.06.48,2.24.71,3.56.71,1.14,0,2.22-.11,3.23-.32s1.91-.55,2.7-1v-5.97h-5.18v-4.07h9.68v12.93Z"/>
        <path class="cls-1" d="M161.3,34.56h8.79c1.21,0,2.39.11,3.52.34,1.13.23,2.14.61,3.02,1.16.88.55,1.58,1.29,2.11,2.22.52.93.79,2.11.79,3.54,0,1.83-.51,3.37-1.52,4.61s-2.46,1.99-4.34,2.25l6.72,11.18h-5.43l-5.86-10.72h-3.29v10.72h-4.5v-25.3ZM169.3,45.28c.64,0,1.29-.03,1.93-.09.64-.06,1.23-.2,1.77-.43.54-.23.97-.57,1.3-1.04.33-.46.5-1.11.5-1.95,0-.74-.16-1.33-.46-1.79s-.71-.79-1.21-1.02c-.5-.23-1.05-.38-1.66-.45-.61-.07-1.2-.11-1.77-.11h-3.9v6.86h3.5Z"/>
        <path class="cls-1" d="M182.45,47.32c0-2.02.33-3.86,1-5.52.67-1.66,1.59-3.07,2.77-4.23s2.58-2.07,4.22-2.7c1.63-.63,3.42-.95,5.38-.95,1.98-.02,3.79.27,5.43.88,1.64.61,3.06,1.5,4.25,2.66,1.19,1.17,2.12,2.57,2.79,4.22.67,1.64,1,3.48,1,5.5s-.33,3.78-1,5.4c-.67,1.62-1.6,3.01-2.79,4.18-1.19,1.17-2.61,2.08-4.25,2.73-1.64.65-3.45.99-5.43,1.02-1.95,0-3.75-.32-5.38-.95-1.63-.63-3.04-1.52-4.22-2.68s-2.1-2.54-2.77-4.16c-.67-1.62-1-3.42-1-5.4ZM187.17,47.03c0,1.36.21,2.61.63,3.75.42,1.14,1.01,2.13,1.77,2.97.76.83,1.67,1.49,2.73,1.97,1.06.48,2.24.71,3.56.71s2.5-.24,3.57-.71c1.07-.48,1.99-1.13,2.75-1.97.76-.83,1.35-1.82,1.77-2.97.42-1.14.63-2.39.63-3.75,0-1.26-.21-2.44-.63-3.54-.42-1.1-1.01-2.05-1.77-2.88-.76-.82-1.68-1.46-2.75-1.93-1.07-.46-2.26-.7-3.57-.7s-2.5.23-3.56.7c-1.06.46-1.97,1.11-2.73,1.93s-1.35,1.78-1.77,2.88c-.42,1.1-.63,2.28-.63,3.54Z"/>
        <path class="cls-1" d="M233.83,50.57c0,1.53-.26,2.9-.79,4.13-.52,1.23-1.24,2.27-2.14,3.13-.91.86-1.98,1.52-3.22,1.98s-2.59.7-4.04.7-2.8-.23-4.04-.7c-1.24-.46-2.32-1.13-3.23-1.98-.92-.86-1.63-1.9-2.14-3.13-.51-1.23-.77-2.6-.77-4.13v-16.01h4.5v15.87c0,.62.1,1.27.29,1.95.19.68.51,1.3.95,1.88.44.57,1.02,1.04,1.75,1.41.73.37,1.63.55,2.7.55s1.97-.18,2.7-.55c.73-.37,1.31-.84,1.75-1.41.44-.57.76-1.2.95-1.88.19-.68.29-1.33.29-1.95v-15.87h4.5v16.01Z"/>
        <path class="cls-1" d="M239.37,34.56h8.5c1.21,0,2.39.12,3.52.36,1.13.24,2.13.64,2.98,1.2.86.56,1.54,1.31,2.05,2.25.51.94.77,2.11.77,3.52,0,1.6-.27,2.88-.82,3.86-.55.98-1.29,1.73-2.22,2.27-.93.54-2.01.9-3.23,1.09-1.23.19-2.51.29-3.84.29h-3.22v10.47h-4.5v-25.3ZM246.59,45.53c.64,0,1.31-.02,2-.07.69-.05,1.33-.19,1.91-.43.58-.24,1.06-.6,1.43-1.07.37-.48.55-1.14.55-2,0-.79-.17-1.41-.5-1.88-.33-.46-.76-.82-1.29-1.07s-1.11-.41-1.75-.48-1.26-.11-1.86-.11h-3.22v7.11h2.72Z"/>
      </g>
    </g>
  </g>
</svg>