<?xml version="1.0" encoding="UTF-8"?>
<svg id="Layer_2" data-name="Layer 2" xmlns="http://www.w3.org/2000/svg" viewBox="0 0 54.63 54.55">
  <defs>
    <style>
      .cls-1 {
        fill: #fff;
        stroke-width: 0px;
      }
    </style>
  </defs>
  <g id="Home_page" data-name="Home page">
    <g id="mD0nq3">
      <g>
        <path class="cls-1" d="M34.42,0c2.93.02,5.72.5,8.44,1.48,1.82.66,2.61,2.06,2.06,4.03-.41,1.46-.97,2.9-1.67,4.24-1.26,2.41-2.53,4.83-4.06,7.08-1.8,2.65-4.41,4.49-7.15,6.08-2.41,1.4-4.91,2.65-7.38,3.95-4.64,2.44-9.02,5.28-12.12,9.59-1.94,2.7-3.45,5.72-5.14,8.59-.3.5-.51,1.06-.85,1.53-.93,1.27-2.36,1.25-3.21-.05-1.27-1.94-2.19-4.06-2.71-6.32-1.5-6.54-.19-12.7,2.69-18.6,2.66-5.46,6.44-10.05,11.2-13.81,3.88-3.07,8.19-5.41,13.01-6.62,2.25-.57,4.6-.78,6.9-1.15Z"/>
        <path class="cls-1" d="M54.63,19.72c-.14,6.77-2.41,12.81-6.26,18.32-3.36,4.81-7.57,8.73-12.54,11.8-3.74,2.31-7.85,3.68-12.2,4.35-3.75.58-7.44.51-11.08-.67-2.5-.81-3.55-2.61-2.39-4.97,1.66-3.36,3.47-6.69,5.53-9.82,2.29-3.47,5.78-5.64,9.4-7.56,2.41-1.28,4.86-2.47,7.25-3.77,6.16-3.37,10.97-8.04,13.8-14.58.57-1.31,1.23-2.58,1.83-3.87.4-.87,1.04-1.42,2.02-1.44.95-.02,1.43.64,1.84,1.37,1.9,3.35,2.83,6.95,2.81,10.81Z"/>
      </g>
    </g>
  </g>
</svg>