<?xml version="1.0" encoding="UTF-8"?>
<svg id="Layer_2" data-name="Layer 2" xmlns="http://www.w3.org/2000/svg" viewBox="0 0 54.55 47.73">
  <defs>
    <style>
      .cls-1 {
        fill: #fff;
        stroke-width: 0px;
      }
    </style>
  </defs>
  <g id="Home_page" data-name="Home page">
    <path class="cls-1" d="M0,26.78c0-1.61,1.31-2.92,2.92-2.92h48.71c1.61,0,2.92,1.31,2.92,2.92,0,7.51-4.73,13.92-11.37,16.42l-.19,1.54c-.21,1.7-1.66,2.98-3.39,2.98H14.94c-1.72,0-3.17-1.28-3.39-2.98l-.19-1.53C4.73,40.71,0,34.3,0,26.78ZM5.97,15.34h1.7c1.42,0,2.56,1.14,2.56,2.56s-1.14,2.56-2.56,2.56h-1.7c-1.42,0-2.56-1.14-2.56-2.56s1.14-2.56,2.56-2.56ZM11.08,7.67h1.7c1.42,0,2.56,1.14,2.56,2.56s-1.14,2.56-2.56,2.56h-1.7c-1.42,0-2.56-1.14-2.56-2.56s1.14-2.56,2.56-2.56ZM13.64,17.9c0-1.42,1.14-2.56,2.56-2.56h1.7c1.42,0,2.56,1.14,2.56,2.56s-1.14,2.56-2.56,2.56h-1.7c-1.42,0-2.56-1.14-2.56-2.56ZM18.75,2.56c0-1.42,1.14-2.56,2.56-2.56h1.7c1.42,0,2.56,1.14,2.56,2.56s-1.14,2.56-2.56,2.56h-1.7c-1.42,0-2.56-1.14-2.56-2.56ZM21.31,7.67h1.7c1.42,0,2.56,1.14,2.56,2.56s-1.14,2.56-2.56,2.56h-1.7c-1.42,0-2.56-1.14-2.56-2.56s1.14-2.56,2.56-2.56ZM23.86,17.9c0-1.42,1.14-2.56,2.56-2.56h1.7c1.42,0,2.56,1.14,2.56,2.56s-1.14,2.56-2.56,2.56h-1.7c-1.42,0-2.56-1.14-2.56-2.56ZM31.54,0h1.7c1.42,0,2.56,1.14,2.56,2.56s-1.14,2.56-2.56,2.56h-1.7c-1.42,0-2.56-1.14-2.56-2.56s1.14-2.56,2.56-2.56ZM31.54,7.67h1.7c1.42,0,2.56,1.14,2.56,2.56s-1.14,2.56-2.56,2.56h-1.7c-1.42,0-2.56-1.14-2.56-2.56s1.14-2.56,2.56-2.56ZM34.09,17.9c0-1.42,1.14-2.56,2.56-2.56h1.7c1.42,0,2.56,1.14,2.56,2.56s-1.14,2.56-2.56,2.56h-1.7c-1.42,0-2.56-1.14-2.56-2.56ZM41.76,7.67h1.7c1.42,0,2.56,1.14,2.56,2.56s-1.14,2.56-2.56,2.56h-1.7c-1.42,0-2.56-1.14-2.56-2.56s1.14-2.56,2.56-2.56ZM44.32,17.9c0-1.42,1.14-2.56,2.56-2.56h1.7c1.42,0,2.56,1.14,2.56,2.56s-1.14,2.56-2.56,2.56h-1.7c-1.42,0-2.56-1.14-2.56-2.56Z"/>
  </g>
</svg>