<?xml version="1.0" encoding="UTF-8"?>
<svg id="Layer_2" data-name="Layer 2" xmlns="http://www.w3.org/2000/svg" viewBox="0 0 54.57 47.75">
  <defs>
    <style>
      .cls-1 {
        fill: #fff;
        stroke-width: 0px;
      }
    </style>
  </defs>
  <g id="C_Cini" data-name="C Cini">
    <path class="cls-1" d="M0,6.82C0,3.06,3.06,0,6.82,0h40.92c3.76,0,6.82,3.06,6.82,6.82v34.1c0,3.76-3.06,6.82-6.82,6.82H6.82c-3.76,0-6.82-3.06-6.82-6.82V6.82ZM11.94,17.05c2.82,0,5.12-2.29,5.12-5.12s-2.29-5.11-5.12-5.11-5.12,2.29-5.12,5.11,2.29,5.12,5.12,5.12ZM34.51,18.17c-.48-.7-1.27-1.12-2.11-1.12s-1.64.42-2.11,1.12l-9.27,13.6-2.82-3.53c-.49-.61-1.23-.96-1.99-.96s-1.51.35-1.99.96l-6.82,8.53c-.62.77-.74,1.82-.31,2.71s1.32,1.45,2.3,1.45h35.81c.95,0,1.82-.52,2.26-1.36.44-.84.38-1.85-.15-2.63l-12.79-18.76Z"/>
  </g>
</svg>