<?xml version="1.0" encoding="UTF-8"?>
<svg id="Layer_2" data-name="Layer 2" xmlns="http://www.w3.org/2000/svg" viewBox="0 0 54.55 43.67">
  <defs>
    <style>
      .cls-1 {
        fill: #fff;
        stroke-width: 0px;
      }
    </style>
  </defs>
  <g id="Home_page" data-name="Home page">
    <path class="cls-1" d="M10.79,33.6c.16-1.81.14-3.65.5-5.41,1.02-4.93,5.2-8.8,10.17-9.61,4.6-.75,7.18-3.3,7.99-7.88C30.56,4.45,35.66.1,42,.02c1.91-.03,3.82-.02,5.73,0,3.83.05,6.71,2.83,6.77,6.66.04,2.56.11,5.15-.17,7.69-.6,5.47-5.03,9.86-10.46,10.74-4.39.71-7.04,3.24-7.82,7.65-.96,5.48-4.47,9.29-9.81,10.53-.81.19-1.66.31-2.5.33-2.16.04-4.32.1-6.48,0-3.76-.18-6.27-3.01-6.36-7-.02-1,0-2,0-3-.04,0-.09,0-.13-.01ZM21.83,37.13c.96,0,1.7-.75,1.67-1.69-.02-.89-.78-1.6-1.7-1.6-.92,0-1.67.73-1.68,1.62,0,.94.74,1.67,1.7,1.67ZM27.31,31.7c.96-.01,1.62-.72,1.59-1.73-.02-.95-.72-1.63-1.65-1.61-.92.02-1.61.74-1.6,1.68,0,.99.69,1.68,1.67,1.67ZM27.24,37.15c.98.01,1.65-.66,1.66-1.67,0-.96-.66-1.66-1.59-1.68-.93-.02-1.64.68-1.67,1.61-.03.99.65,1.72,1.6,1.73ZM40.91,14.74c-.9,0-1.67.74-1.68,1.62,0,.92.71,1.64,1.63,1.66.96.02,1.66-.63,1.68-1.58.02-1-.64-1.69-1.63-1.7ZM46.34,14.74c-.9.01-1.66.78-1.64,1.66.02.92.75,1.63,1.67,1.63.99,0,1.67-.69,1.64-1.69-.03-.96-.7-1.61-1.67-1.59ZM48.01,10.91c-.01-.97-.69-1.64-1.64-1.62-.95.01-1.62.7-1.61,1.66,0,.95.7,1.63,1.65,1.62.96-.01,1.62-.69,1.6-1.66ZM10.17,42.74c-1.2-1.56-1.92-3.31-1.97-5.27-.06-2.5-.14-5.01.04-7.49.44-5.82,3.4-10.09,8.58-12.69,1.76-.88,3.76-1.3,5.67-1.86,1.92-.56,3.24-1.66,3.76-3.64.34-1.27.71-2.53,1.05-3.8.05-.18.05-.42-.03-.59-.69-1.51-1.32-3.05-2.11-4.5-1.37-2.51-3.92-3.47-6.62-2.48-1.76.65-3.51,1.39-5.18,2.24-2.92,1.48-4.77,3.86-5.47,7.08-.42,1.91-.11,3.78.25,5.67.36,1.87.27,3.78-.99,5.32-.85,1.04-1.88,1.98-2.96,2.78C.79,26.03-.84,30.38.43,34.43c.66,2.09,1.53,4.14,2.52,6.09,1.48,2.9,4.61,3.89,7.4,2.5-.06-.1-.12-.19-.19-.28Z"/>
  </g>
</svg>