<?xml version="1.0" encoding="UTF-8"?>
<svg id="Layer_2" data-name="Layer 2" xmlns="http://www.w3.org/2000/svg" viewBox="0 0 54.57 54.66">
  <defs>
    <style>
      .cls-1 {
        fill: #fff;
        stroke-width: 0px;
      }
    </style>
  </defs>
  <g id="Home_page" data-name="Home page">
    <path class="cls-1" d="M34.89,24.66c-1.07,1.08-2.12,2.14-3.26,3.28.23.1.46.26.7.29,3.46.46,6.09,2.4,8.49,4.73.84.81.82,1.91,0,2.73-1.97,1.95-4.13,3.55-7.02,3.89-2.61.3-4.97-.28-7.09-1.8-.76-.55-1.47-1.17-2.15-1.82-.47-.44-.78-.4-1.19.06-.68.76-1.42,1.48-2.12,2.23-.16.17-.28.39-.46.64,1.09.3,2.08.53,3.05.84,2.49.79,4.43,2.41,6.2,4.25.78.81.74,1.82-.1,2.67-3.28,3.32-7.08,4.9-11.75,3.29-1.7-.59-3.1-1.67-4.32-2.96-.58-.61-.92-.48-1.44.05-2.04,2.1-4.12,4.17-6.19,6.24-.8.8-1.69,1.35-2.91,1.4-2.36.1-4.22-2.5-2.91-5.07.26-.52.69-.98,1.11-1.39,2.01-2.01,4.03-4.02,6.09-5.99.54-.51.57-.86.05-1.39-1.5-1.55-2.73-3.27-3.17-5.45-.58-2.89-.15-5.61,1.55-8.05.6-.86,1.33-1.63,2.07-2.38.93-.94,1.99-.91,2.93,0,2.38,2.3,4.2,4.93,4.71,8.3.02.11.09.2.19.42.27-.2.52-.34.73-.54.58-.55,1.13-1.12,1.69-1.69.81-.81.77-.78.06-1.63-.72-.87-1.47-1.75-2.04-2.72-1.96-3.35-1.64-7.86.75-10.93.57-.74,1.2-1.45,1.86-2.11.9-.9,1.98-.91,2.88-.03,2.34,2.26,4.11,4.86,4.63,8.16.02.11.05.22.09.33.03.08.07.15.21.4,1.03-1.01,2.02-1.97,2.97-2.96.09-.09-.06-.51-.2-.7-.81-1.1-1.8-2.09-2.45-3.26-2-3.63-1.54-7.17.77-10.51.6-.86,1.35-1.62,2.08-2.38.9-.93,1.81-.91,2.75,0,2.49,2.42,4.26,5.25,4.79,8.74.25,1.65.25,3.29-.18,4.91-.2.76.02.91.74.74,2.49-.58,4.97-.51,7.41.29,1.99.66,3.63,1.86,5.14,3.27,2.3,2.15,2.28,2.69-.04,4.78-1.71,1.54-3.58,2.66-5.93,2.94-2.71.32-5.14-.31-7.29-1.95-.88-.67-1.67-1.44-2.5-2.16ZM41.01,11.93c.09,1.25.61,1.75,1.85,1.73,1.33-.02,2.68-.02,3.99-.25,3.48-.6,5.79-2.71,7.11-5.93.72-1.76.6-3.63.59-5.47-.01-1.31-.62-1.92-1.93-1.98-.68-.03-1.37-.05-2.05,0-2.09.17-4.1.6-5.81,1.93-2.62,2.03-3.8,4.74-3.75,8.01,0,.65-.04,1.31,0,1.96Z"/>
  </g>
</svg>