<?xml version="1.0" encoding="UTF-8"?>
<svg id="Layer_2" data-name="Layer 2" xmlns="http://www.w3.org/2000/svg" viewBox="0 0 54.35 47.48">
  <defs>
    <style>
      .cls-1 {
        fill: #fff;
        stroke-width: 0px;
      }
    </style>
  </defs>
  <g id="Home_page" data-name="Home page">
    <path class="cls-1" d="M27.22,47.47c-6.6,0-13.2,0-19.8,0C3.28,47.46-.05,44.68,0,40.15c.05-4.79.02-9.57,0-14.36,0-1.38.54-2.43,1.62-3.28C10.59,15.45,19.56,8.41,28.46,1.27c1.75-1.4,3.6-1.4,5.53-1.11,6.55.99,11.82,4.21,15.8,9.49,3.2,4.25,4.55,9.11,4.55,14.39,0,5.41.01,10.82,0,16.23-.01,4.24-3,7.2-7.24,7.21-6.63,0-13.26,0-19.89,0ZM27.19,28.79c-5.21,0-10.42,0-15.63,0-1.9,0-3.79.02-5.69-.01-.62,0-.87.21-.86.83.02,1.22.02,2.43,0,3.65,0,.5.23.73.72.72.28,0,.57,0,.85,0,13.73,0,27.47,0,41.2,0,.23,0,.45-.02.68,0,.65.05.92-.23.91-.89-.03-1.08-.04-2.15,0-3.23.04-.84-.24-1.11-1.11-1.11-7.02.03-14.04.02-21.07.02ZM27.23,37.28c-1.98,0-3.96,0-5.95,0-5.1,0-10.19.01-15.29-.01-.73,0-1.06.2-.98.96.04.45,0,.91,0,1.36,0,2.14.46,2.59,2.58,2.59,12.91,0,25.83,0,38.74,0,.37,0,.74.01,1.1,0,1.21-.06,1.75-.52,1.88-1.74.07-.7,0-1.42.05-2.12.07-.82-.26-1.05-1.07-1.05-7.02.03-14.05.02-21.07.02Z"/>
  </g>
</svg>