<?xml version="1.0" encoding="UTF-8"?>
<svg id="Layer_2" data-name="Layer 2" xmlns="http://www.w3.org/2000/svg" viewBox="0 0 40.86 54.63">
  <defs>
    <style>
      .cls-1 {
        fill: #fff;
        stroke-width: 0px;
      }
    </style>
  </defs>
  <g id="Home_page" data-name="Home page">
    <path class="cls-1" d="M20.44,54.62c-4.59,0-9.17,0-13.76,0-2.57,0-4.58-1.03-5.87-3.29-.64-1.11-.94-2.35-.76-3.62.57-4.2,1.19-8.4,1.79-12.6.5-3.55,1-7.1,1.51-10.65.41-2.9.88-5.8,1.25-8.71.31-2.38.76-4.71,1.8-6.9,1.47-3.09,3.72-5.4,6.73-7.01C15.3.69,17.63.08,20.08,0c2-.06,3.97.27,5.85.99,3.36,1.28,6.01,3.42,7.88,6.5,1.18,1.95,1.9,4.08,2.25,6.31.72,4.67,1.34,9.35,2,14.03.91,6.43,1.82,12.85,2.72,19.28.58,4.17-2.26,7.48-6.49,7.5-4.62.03-9.23,0-13.85,0ZM20.41,47.86c3.87,0,7.75,0,11.62,0q1.98,0,1.75-1.91s0-.06,0-.09c-.6-4.4-1.2-8.79-1.81-13.19-.53-3.8-1.09-7.6-1.61-11.41-.08-.61-.29-.83-.91-.83-6.01.02-12.02.02-18.02,0-.54,0-.73.16-.8.71-.4,3.05-.85,6.09-1.28,9.13-.78,5.58-1.54,11.16-2.36,16.73-.11.74.11.87.78.87,4.21-.02,8.43-.01,12.64-.01ZM15.3,11.97c1.03.01,1.72-.65,1.74-1.69.03-1-.69-1.75-1.67-1.77-1-.02-1.73.69-1.74,1.7,0,1.05.66,1.76,1.66,1.77ZM27.29,10.21c-.01-1.01-.75-1.73-1.74-1.71-1.02.03-1.67.73-1.66,1.77.02,1.04.7,1.71,1.73,1.7,1.01-.02,1.67-.72,1.66-1.76ZM20.45,8.48c1.05,0,1.74-.67,1.73-1.69,0-.9-.78-1.66-1.71-1.67-.96-.01-1.67.68-1.68,1.65-.02,1.09.58,1.71,1.66,1.71Z"/>
  </g>
</svg>