<?xml version="1.0" encoding="UTF-8"?>
<svg id="Layer_2" data-name="Layer 2" xmlns="http://www.w3.org/2000/svg" viewBox="0 0 54.63 48.65">
  <defs>
    <style>
      .cls-1 {
        fill: #fff;
        stroke-width: 0px;
      }
    </style>
  </defs>
  <g id="Home_page" data-name="Home page">
    <path class="cls-1" d="M53.89,28.27c1.01-1.77.99-2.53-.11-4.23-.25-.39-.3-1.12-.12-1.56.54-1.33.72-2.6-.52-3.55-.88-.68-.93-1.41-.67-2.31.41-1.42-.06-2.52-1.31-3.19-.83-.45-1.04-.99-.94-1.9.16-1.45-.47-2.57-1.9-3.05-.85-.29-1.15-.84-1.19-1.66-.08-1.51-.96-2.45-2.34-2.77-.96-.23-1.42-.64-1.61-1.59-.31-1.6-1.5-2.38-3-2.44-1.08-.04-2.27.08-3.26.49-5.21,2.16-8.34,6.06-9.44,11.61-.34,1.73-.82,3.43-1.36,5.11-.41,1.27-1.43,1.61-2.57,1.02-1.27-.66-2.45-1.5-3.67-2.26-1.61-1.01-3.14-2.22-4.86-2.97-3.61-1.57-7.36-1.51-11.05-.2C.94,13.88,0,15.9.91,18.86c.15.48.02,1.18-.25,1.62-.86,1.44-.94,2.75.11,4.15.27.36.31,1.14.12,1.58-.66,1.52-.49,2.83.74,3.93.6.54.7,1.07.49,1.84-.38,1.38-.12,2.63,1.26,3.35.84.44,1.01,1.03.93,1.92-.12,1.37.39,2.51,1.77,3,.93.33,1.26.88,1.34,1.85.13,1.55.99,2.53,2.6,2.86.41.09.96.56,1.06.95.44,1.73,1.51,2.75,3.24,2.73,1.45-.02,3.06-.06,4.32-.66,4.75-2.28,7.65-6.08,8.59-11.34.27-1.51.59-3.02,1.09-4.46.72-2.06,1.58-2.4,3.51-1.33,1.41.79,2.72,1.79,4,2.79,2.78,2.17,5.89,3.34,9.71,3.32.33-.02.94,0,1.54-.08,2.44-.31,4.79-.84,6.37-3,.93-1.28,1.25-2.54.39-4.02-.23-.4-.18-1.17.06-1.6ZM39.83,24.76c-.23.38-.69.63-1.2.81-1.09.38-2.18.6-3.28.62-.86.01-1.73-.11-2.61-.37-1.63-.49-2.96-.64-4.11-.42-.04,0-.07.01-.11.02-.13.03-.26.06-.39.1-1.48.45-2.67,1.59-3.87,3.52-.24.39-.5.74-.78,1.07-.25.29-.51.55-.79.79-.44.38-.91.72-1.42,1.01-.23.13-.47.26-.72.37-.03.02-.07.03-.1.04-.19.08-.37.16-.56.24-.92.35-1.97.43-2.39-.67,0-.02-.01-.04-.02-.06-.03-.09-.06-.18-.07-.27,0-.02,0-.03,0-.05-.05-.35.06-.64.25-.88.25-.31.67-.54,1.12-.71.11-.04.22-.09.33-.14.22-.1.42-.2.62-.32.49-.29.92-.64,1.3-1.04,0,0,.02-.02.03-.03.1-.11.2-.22.29-.34.08-.1.16-.2.23-.31.36-.5.66-1.06.92-1.68-.18-.1-.36-.18-.53-.26-.74-.32-1.48-.5-2.23-.55-.12,0-.23-.01-.35-.01-.82,0-1.65.14-2.5.42-1.36.45-2.34-.35-1.92-1.53.09-.24.27-.48.5-.69t0,0s.02-.02.03-.02c.22-.2.47-.36.71-.45,1.45-.57,2.95-.81,4.45-.61.48.06.95.17,1.43.33,1.44.47,2.81.62,4.06.39,1.86-.34,3.43-1.51,4.52-3.67.84-1.67,2.38-2.65,4.07-3.38.06-.03.12-.05.19-.08.84-.35,1.66-.37,2.14.38.05.07.09.15.13.24.14.3.17.57.12.81-.02.1-.05.19-.09.27-.19.39-.6.67-1.07.89-.45.21-.88.44-1.28.7-.3.19-.58.4-.85.64-.27.23-.51.48-.74.75-.08.09-.15.18-.22.28-.1.13-.19.27-.28.42-.1.17-.2.34-.3.52-.11.23-.22.46-.31.71,1.88.74,3.69.96,5.53.3.36-.13.7-.21,1.01-.2,0,0,0,0,.01,0,.44.01.81.21,1.06.7.04.08.07.15.1.24.17.48.12.86-.06,1.15Z"/>
  </g>
</svg>