<?xml version="1.0" encoding="UTF-8"?>
<svg id="Layer_2" data-name="Layer 2" xmlns="http://www.w3.org/2000/svg" viewBox="0 0 54.55 48.03">
  <defs>
    <style>
      .cls-1 {
        fill: #fff;
        stroke-width: 0px;
      }
    </style>
  </defs>
  <g id="Home_page" data-name="Home page">
    <path class="cls-1" d="M51.63,24.17h-22.14c1.96-1.42,3.36-3.34,3.64-5.42.16-1.24-.09-2.54-.79-3.66l15.38-11.77c.81-.62.97-1.79.34-2.6-.62-.81-1.79-.97-2.6-.34l-15.37,11.77c-.9-.97-2.08-1.55-3.32-1.71-4.6-.61-9.93,4.29-10.66,9.8-.19,1.44.19,2.83.97,3.93H2.92c-1.61,0-2.92,1.31-2.92,2.92,0,7.51,4.73,13.92,11.36,16.43l.19,1.53c.21,1.7,1.67,2.98,3.39,2.98h24.66c1.73,0,3.18-1.28,3.39-2.98l.19-1.54c6.64-2.49,11.37-8.91,11.37-16.42,0-1.61-1.31-2.92-2.92-2.92Z"/>
  </g>
</svg>