<?xml version="1.0" encoding="UTF-8"?>
<svg id="Layer_2" data-name="Layer 2" xmlns="http://www.w3.org/2000/svg" viewBox="0 0 37.62 54.63">
  <defs>
    <style>
      .cls-1 {
        fill: #fff;
        stroke-width: 0px;
      }
    </style>
  </defs>
  <g id="Home_page" data-name="Home page">
    <path class="cls-1" d="M37.59,27.35c0-6.18-.06-12.37.03-18.55.04-2.4-.98-4.02-2.93-5.19-2.75-1.66-5.76-2.58-8.9-3.06C22.29,0,18.77-.15,15.23.15,10.85.53,6.61,1.37,2.81,3.73,1.02,4.84.01,6.37.02,8.58.05,20.92.08,33.27,0,45.61c-.02,2.79,1.2,4.6,3.52,5.82,4.05,2.13,8.47,2.71,12.94,3.1,3.38.29,6.72-.08,10.03-.63,2.89-.48,5.74-1.24,8.26-2.83,1.78-1.12,2.88-2.61,2.86-4.89-.07-6.27-.03-12.54-.03-18.81ZM18.85,3.69c6.55,0,11.85,1.42,11.85,3.18s-5.31,3.18-11.85,3.18-11.85-1.42-11.85-3.18,5.31-3.18,11.85-3.18ZM22.34,30.6c-.01,1.75-1.34,3.64-3.76,3.57-1.73,0-3.29-1.62-3.26-3.4.03-1.95,1.73-3.51,3.8-3.49,1.78.02,3.24,1.48,3.22,3.31ZM30.06,45.89c-1.79.54-3.54,1.33-5.37,1.57-2.64.34-5.33.39-8,.37-2.83-.01-5.6-.54-8.26-1.54-1.58-.6-1.63-.67-1.63-2.33,0-3.76,0-7.52,0-11.28,0-1.02.03-.97,1-.81,1.75.27,2.86.94,3.59,2.81,1.42,3.64,6.56,5.65,10.59,3.94,2.51-1.06,4.14-2.83,4.98-5.39.09-.27.28-.64.51-.71,1.05-.32,2.13-.55,3.29-.84.02.38.05.66.05.93,0,4.02-.01,8.03.01,12.05,0,.62-.14,1.05-.76,1.24Z"/>
  </g>
</svg>